HIERARCHY
ROOT hip
{
	OFFSET 0.000000 0.000000 0.000000 
	CHANNELS 6 Xposition Yposition Zposition Xrotation Zrotation Yrotation
	JOINT abdomen
	{
		OFFSET 0.000000 3.402643 0.000000 
		CHANNELS 3 Xrotation Zrotation Yrotation
		JOINT chest
		{
			OFFSET 0.000000 8.438565 -0.680529 
			CHANNELS 3 Xrotation Zrotation Yrotation
			JOINT neck
			{
				OFFSET 0.000000 10.207942 -0.272212 
				CHANNELS 3 Xrotation Zrotation Yrotation
				JOINT head
				{
					OFFSET 0.000000 3.130431 0.000000 
					CHANNELS 3 Xrotation Zrotation Yrotation
					End Site
					{
						OFFSET 0.000000 3.130435 0.000000 
					}
				}
			}
			JOINT lCollar
			{
				OFFSET 3.470700 6.669187 -0.816635 
				CHANNELS 3 Yrotation Zrotation Xrotation
				JOINT lShldr
				{
					OFFSET 3.198488 0.000000 0.000000 
					CHANNELS 3 Zrotation Yrotation Xrotation
					JOINT lForeArm
					{
						OFFSET 10.139888 0.000000 0.000000 
						CHANNELS 3 Yrotation Zrotation Xrotation
						JOINT lHand
						{
							OFFSET 8.370511 0.000000 0.000000 
							CHANNELS 3 Zrotation Yrotation Xrotation
							End Site
							{
								OFFSET 4.083176 0.000000 0.000000 
							}
						}
					}
				}
			}
			JOINT rCollar
			{
				OFFSET -3.470700 6.669187 -0.816635 
				CHANNELS 3 Yrotation Zrotation Xrotation
				JOINT rShldr
				{
					OFFSET -3.198488 0.000000 0.000000 
					CHANNELS 3 Zrotation Yrotation Xrotation
					JOINT rForeArm
					{
						OFFSET -10.139888 0.000000 0.000000 
						CHANNELS 3 Yrotation Zrotation Xrotation
						JOINT rHand
						{
							OFFSET -8.370511 0.000000 0.000000 
							CHANNELS 3 Zrotation Yrotation Xrotation
							End Site
							{
								OFFSET -4.083176 0.000000 0.000000 
							}
						}
					}
				}
			}
		}
	}
	JOINT lThigh
	{
		OFFSET 5.308129 -1.633274 1.361059 
		CHANNELS 3 Xrotation Zrotation Yrotation
		JOINT lShin
		{
			OFFSET -2.041588 -20.007561 0.000000 
			CHANNELS 3 Xrotation Zrotation Yrotation
			JOINT lFoot
			{
				OFFSET 0.000000 -19.190928 -1.224953 
				CHANNELS 3 Xrotation Yrotation Zrotation
				End Site
				{
					OFFSET 0.000000 -2.449906 4.627600 
				}
			}
		}
	}
	JOINT rThigh
	{
		OFFSET -5.308129 -1.633274 1.361059 
		CHANNELS 3 Xrotation Zrotation Yrotation
		JOINT rShin
		{
			OFFSET 2.041588 -20.007561 0.000000 
			CHANNELS 3 Xrotation Zrotation Yrotation
			JOINT rFoot
			{
				OFFSET 0.000000 -19.190928 -1.224953 
				CHANNELS 3 Xrotation Yrotation Zrotation
				End Site
				{
					OFFSET 0.000000 -2.449906 4.627600 
				}
			}
		}
	}
}
MOTION
Frames: 16
Frame Time: 0.033333
-8.694132 52.946247 20.243345 131.123062 -171.601563 -1.622520 5.019532 -0.156250 0.156223 81.250000 3.330078 0.761719 2.255860 2.402344 -5.546465 -56.025391 2.021484 -5.976563 -12.343751 27.460938 5.771485 24.882811 -47.636715 -91.093750 -42.958984 -20.771486 35.423386 32.373047 1.494141 -15.019279 24.531250 -29.824219 18.818359 -9.658202 36.503906 -83.988327 39.482422 14.199220 37.353516 -55.253906 -0.986328 -3.789231 -30.545036 28.123383 0.384564 34.102142 -6.085879 -11.775285 -19.120897 -3.881218 -1.211133 -39.135506 -28.990030 -3.602994 40.395645 -6.268252 7.820405 -15.521196 -1.054139 2.786193 
-9.033974 49.600132 22.705244 145.429703 -172.841797 -3.370357 5.019532 -0.156250 0.156223 84.853516 2.832031 0.410639 2.216797 2.470703 -5.546875 -53.603516 2.470703 -5.917969 -13.437499 25.429686 5.864947 19.707031 -51.035152 -75.605469 -52.929688 -24.072268 30.462969 26.884768 2.187500 -14.775019 26.630857 -25.830076 18.544924 -4.404297 36.650387 -67.226563 47.177734 16.181641 37.565636 -39.638676 -1.562500 -3.554688 -31.957024 27.465889 0.296013 41.199661 -5.422399 -12.327638 -22.248911 -3.899168 -1.174528 -40.051373 -28.431995 -3.555788 45.561752 -6.444167 7.012660 -17.366663 -1.092589 2.797800 
-9.346429 45.909431 24.993217 158.242188 -174.355469 -4.864241 5.019532 -0.156250 0.156223 86.962891 1.904297 -0.429688 1.259766 2.832031 -5.575689 -51.582035 2.851563 -5.429688 -12.744140 24.707031 5.406075 14.541017 -53.466801 -62.253944 -64.599609 -26.845705 26.117691 22.714842 3.554688 -14.609375 27.822268 -24.218752 18.558695 -0.585938 35.400436 -53.470940 57.080078 18.193359 38.590698 -30.898438 -2.070313 -3.242541 -33.791283 26.644695 0.190250 51.132847 -2.729625 -12.270073 -25.859741 -3.877925 -1.180000 -41.499588 -27.448078 -3.515037 54.136646 -8.514693 5.643680 -19.935139 -1.081676 2.792282 
-9.632775 42.474266 26.974197 168.701172 -175.966797 -6.182327 5.019532 -0.156250 0.156223 88.105469 0.703125 -1.484255 -0.585938 3.359381 -5.663481 -50.712891 3.085937 -4.560547 -11.406250 25.449219 4.960938 11.035156 -54.375004 -54.529419 -76.611328 -28.535158 22.744139 20.117188 4.707031 -14.549980 28.300781 -24.305113 18.832275 0.996094 33.242188 -45.814960 67.773438 19.716797 39.693974 -26.533203 -1.503906 -3.125000 -36.140713 25.945997 0.030762 62.353191 1.615759 -11.181877 -29.039423 -3.891974 -1.191649 -43.589317 -26.169073 -3.441416 64.321419 -12.117854 4.008592 -22.278595 -1.072215 2.808888 
-9.898888 39.817207 28.591825 176.455078 -177.412109 -7.266066 5.019532 -0.156250 0.156223 88.720703 -0.507813 -2.646484 -2.607422 3.447266 -5.791016 -51.699219 3.769531 -3.856780 -10.595703 26.875002 4.833984 9.687500 -53.710938 -53.291019 -86.562500 -29.091801 20.248890 18.808594 5.097656 -14.647570 28.613281 -25.878904 19.638674 0.712891 30.673826 -44.506737 76.923828 20.507814 40.494625 -24.482422 -0.644531 -3.173828 -38.219814 25.427855 -0.033941 72.156204 6.037479 -9.505861 -31.053032 -3.876248 -1.189735 -45.519527 -24.927050 -3.370975 73.056030 -15.790876 2.748266 -23.617126 -1.094834 2.771770 
-10.172509 38.142372 29.873251 1.621094 -1.445313 171.826172 5.019532 -0.156250 0.156223 88.720703 -1.533203 -3.710938 -4.208984 3.193359 -5.878362 -53.789066 4.755859 -3.378906 -11.142578 27.978514 5.278622 9.365234 -51.796875 -56.298828 -92.695313 -29.072266 18.764511 18.730469 5.000000 -14.912109 29.033205 -27.773438 20.629549 -0.039063 28.056641 -47.529297 82.880859 20.742188 40.934036 -23.466797 -0.371094 -3.291079 -39.538830 25.076775 -0.082971 78.783699 9.160169 -7.918242 -31.898712 -3.895965 -1.196503 -46.781757 -23.903322 -3.326094 78.432564 -18.387104 2.351988 -23.880217 -1.078464 2.804845 
-10.474873 37.367699 30.864410 4.902344 -0.576172 171.035156 5.019532 -0.156250 0.156223 88.056641 -2.265625 -4.678120 -5.292969 2.548828 -5.888671 -55.722652 6.074219 -3.241154 -12.500001 28.115236 5.966797 8.769531 -49.775391 -60.322269 -95.087891 -28.974609 18.378906 19.765623 4.990234 -15.332031 29.404299 -28.916016 21.303551 -0.292969 26.240232 -52.460934 85.468750 20.771486 41.373493 -22.138670 -0.693359 -3.418087 -39.788101 24.859226 -0.108062 81.951935 10.693968 -6.917527 -31.937185 -3.899693 -1.212829 -47.006351 -23.190460 -3.279967 80.278740 -19.764019 2.926426 -23.499537 -1.075796 2.795256 
-10.810376 37.290962 31.597301 6.904297 0.117188 170.283203 5.019532 -0.156250 0.156223 86.474609 -2.773437 -5.498047 -5.810546 1.884766 -5.849288 -56.591797 7.314454 -3.182351 -14.169923 27.138672 6.582031 6.914063 -48.251953 -62.985806 -95.410156 -28.925779 18.871910 21.396484 5.234375 -15.809656 29.560547 -28.710939 21.318361 0.517578 25.888638 -57.222267 86.318359 20.722656 42.184048 -19.951172 -1.357422 -3.408190 -39.078560 24.939363 -0.110431 82.566399 10.810745 -6.699969 -31.654989 -3.868023 -1.187901 -46.286480 -22.820894 -3.223367 79.481033 -20.038651 4.378665 -22.767210 -1.084896 2.789674 
-11.178444 37.730011 32.084457 8.212891 0.771484 169.482574 5.019532 -0.156250 0.156223 83.945313 -3.056641 -6.211459 -5.703125 1.416016 -5.800781 -56.660156 8.486328 -2.811059 -15.576173 25.078125 6.748048 3.144531 -47.226566 -62.897793 -95.917969 -28.837893 19.648436 22.939453 5.546875 -15.965851 29.433594 -26.845703 20.478519 2.763672 26.962891 -60.065639 87.626953 20.654295 43.414528 -17.656248 -2.148437 -3.252318 -37.304089 25.370714 -0.045679 81.409172 9.735577 -6.901826 -31.080240 -3.900540 -1.197286 -44.501713 -22.880754 -3.176019 76.725479 -19.266407 6.428305 -21.673487 -1.068556 2.788754 
-11.569745 38.562042 32.333385 9.160155 1.513672 168.554688 5.019532 -0.156250 0.156223 80.498047 -3.125000 -6.650923 -5.341797 1.201172 -5.781250 -55.888672 9.355470 -1.746460 -16.640623 22.099607 6.431873 -2.685547 -45.869141 -59.667965 -98.232422 -28.662107 19.824217 23.671875 5.468750 -15.537109 28.828129 -23.437502 18.744120 6.845704 28.662107 -59.096878 90.966797 20.556639 44.326168 -16.132814 -3.447266 -3.056641 -34.408257 26.157887 0.108781 78.889999 7.685599 -7.284559 -30.131643 -3.903375 -1.237699 -41.587349 -23.229773 -3.123225 72.402435 -17.402407 8.988461 -20.130501 -1.086042 2.789609 
-11.968649 39.742477 32.371906 9.785156 2.539063 167.363281 5.019532 -0.156250 0.156223 76.210938 -2.949219 -6.767579 -4.755859 1.054688 -5.741990 -54.746094 10.205078 0.029296 -17.041016 18.505859 5.576173 -9.960938 -43.505859 -53.818359 -102.646484 -28.271482 19.042969 23.720703 4.804688 -14.658204 27.558594 -19.082031 16.331318 12.919922 29.892576 -53.427734 96.386719 20.390625 43.727066 -15.605470 -4.648438 -2.919922 -30.412035 27.200314 0.337045 75.019325 4.875453 -7.291612 -28.573236 -3.900458 -1.222833 -37.489666 -23.593517 -3.011149 66.399963 -14.381879 11.544690 -17.855118 -1.090762 2.787635 
-12.359053 41.287407 32.265724 9.882813 3.876954 165.742188 5.019532 -0.156250 0.156223 71.152344 -2.617188 -6.484375 -4.140625 1.035156 -5.732228 -52.919922 11.044922 2.666016 -16.816404 14.892577 4.460381 -17.695311 -39.589844 -46.734741 -108.349609 -27.597656 17.660772 23.583986 4.003906 -13.807911 25.351564 -14.482422 13.645021 20.117188 29.970703 -43.823250 102.578125 20.126953 40.878906 -15.800780 -4.707031 -2.930489 -25.512348 28.441692 0.567568 69.554176 1.379712 -6.285722 -26.064653 -3.890529 -1.208849 -32.406662 -23.550568 -2.853676 58.557617 -10.250951 13.602389 -14.642211 -1.067038 2.790290 
-12.714662 43.186558 32.084179 9.179688 5.449219 163.398438 5.019532 -0.156250 0.156223 65.400391 -2.285156 -5.986717 -3.242188 0.937500 -5.693360 -50.351563 12.216797 5.927735 -15.849609 11.708983 3.308565 -24.951172 -34.218754 -39.726566 -113.955070 -26.669922 16.605947 23.779297 3.593750 -13.515624 22.587891 -10.322265 11.318359 27.119141 28.837893 -32.397633 107.861328 19.863281 36.217384 -16.308594 -3.183594 -3.076172 -19.919544 29.713266 0.878171 62.141403 -2.709315 -3.766851 -22.039743 -3.832735 -1.169136 -26.840878 -22.749620 -2.597799 49.030098 -5.448081 14.439889 -10.745852 -1.084134 2.782229 
-13.007810 45.374542 31.921047 7.509767 6.972657 160.264862 5.019532 -0.156250 0.156223 59.101566 -2.080078 -5.420276 -2.158203 0.800781 -5.673815 -47.080078 13.632812 9.650740 -14.023438 9.287110 2.324219 -31.093750 -28.085938 -33.715534 -118.349609 -25.732424 16.435547 24.648438 3.925781 -14.266907 19.931639 -7.187500 9.775391 33.173828 27.207033 -21.479910 111.035156 19.785156 30.830076 -16.806641 -0.205078 -3.427766 -14.295949 30.642012 1.160403 52.963459 -6.876382 0.800649 -16.464844 -3.845152 -1.160042 -21.714392 -21.099110 -2.273162 39.147682 -1.073589 13.568816 -7.044782 -1.076811 2.775857 
-13.226821 47.679840 31.839317 5.166016 8.076172 156.641998 5.019532 -0.156250 0.156223 52.617188 -1.923828 -4.824546 -0.839844 0.722656 -5.644531 -43.750000 14.804688 13.593751 -11.699219 7.646485 1.590497 -35.722656 -21.982422 -29.218746 -121.113281 -25.009766 17.226563 25.664064 4.521484 -16.151573 18.037111 -5.458984 8.995070 38.457031 25.517576 -12.544622 112.158203 19.941404 26.083982 -17.001953 3.007813 -3.895971 -9.832737 31.010397 1.383041 43.486336 -10.133673 6.639028 -10.263650 -3.834598 -1.202714 -17.910007 -18.915745 -1.948263 31.661469 2.041974 11.525476 -4.671373 -1.104349 2.785852 
-13.370231 49.882332 31.866751 2.880859 8.622974 153.262985 5.019532 -0.156250 0.156223 46.640625 -1.611328 -4.199493 0.400391 0.556641 -5.634670 -40.820313 15.576175 16.838560 -9.384766 6.523438 1.082875 -38.642582 -16.699219 -26.503906 -122.597664 -24.570311 18.085939 26.162111 4.687500 -18.827324 17.216797 -5.029297 8.779296 43.359371 23.730467 -6.230468 112.236328 20.146486 22.783201 -17.041016 5.126953 -4.345703 -7.314682 30.800896 1.481387 35.861404 -12.040577 11.710402 -5.496859 -3.857863 -1.168477 -15.365893 -16.732283 -1.717193 28.773285 3.686287 9.162861 -4.007471 -1.084519 2.783870 
